<?xml version="1.0" standalone="no"?>
<!DOCTYPE svg PUBLIC "-//W3C//DTD SVG 20010904//EN"
 "http://www.w3.org/TR/2001/REC-SVG-20010904/DTD/svg10.dtd">
<svg version="1.0" xmlns="http://www.w3.org/2000/svg"
 width="1800.000000pt" height="1800.000000pt" viewBox="0 0 1800.000000 1800.000000"
 preserveAspectRatio="xMidYMid meet">
<metadata>
Created by potrace 1.14, written by Peter Selinger 2001-2017
</metadata>
<g transform="translate(0.000000,1800.000000) scale(0.100000,-0.100000)"
fill="#000000" stroke="none">
<path d="M6350 17993 c-776 -47 -1544 -228 -2250 -530 -2164 -925 -3701 -2923
-4034 -5243 -65 -450 -61 -253 -61 -3220 0 -2967 -4 -2770 61 -3220 253 -1766
1209 -3371 2646 -4443 914 -681 1981 -1121 3098 -1276 427 -59 245 -56 3190
-56 2945 0 2763 -3 3190 56 2128 296 4008 1611 5023 3516 420 788 669 1621
764 2553 17 163 18 354 18 2870 0 2967 4 2770 -61 3220 -272 1899 -1358 3608
-2964 4666 -245 161 -420 263 -681 394 -764 385 -1494 597 -2409 697 -142 16
-382 17 -2815 18 -1463 1 -2685 0 -2715 -2z m5956 -3218 c79 -19 158 -42 176
-51 77 -40 173 -121 223 -188 70 -96 69 -93 105 -246 38 -161 37 -225 -5 -400
-33 -136 -55 -183 -147 -312 -139 -195 -246 -287 -1118 -963 -895 -694 -1922
-1538 -2480 -2039 -286 -257 -908 -884 -1264 -1276 -425 -466 -668 -763 -1062
-1295 -565 -762 -823 -1157 -1239 -1895 -180 -318 -313 -556 -330 -589 l-18
-35 24 16 c13 8 229 143 479 300 250 157 507 318 570 358 407 257 605 381 955
595 83 51 200 123 260 160 61 37 148 90 195 117 47 28 90 53 95 58 33 27 715
426 1285 752 173 99 414 239 535 310 121 72 285 169 365 216 80 47 206 122
280 167 423 255 1239 689 1540 820 229 99 571 255 755 345 600 292 1058 470
1445 564 323 77 340 79 511 37 101 -24 126 -34 183 -75 41 -29 83 -71 112
-112 41 -57 51 -82 75 -183 35 -145 36 -188 3 -331 -23 -101 -32 -124 -77
-191 -61 -90 -132 -142 -337 -244 -143 -71 -417 -216 -560 -295 -47 -26 -157
-84 -245 -130 -509 -265 -729 -392 -1244 -719 -232 -147 -276 -175 -476 -296
-66 -40 -205 -125 -310 -190 -410 -255 -496 -305 -1740 -1010 -231 -131 -562
-319 -735 -418 -173 -99 -349 -199 -390 -223 -274 -153 -711 -410 -1425 -838
-659 -395 -803 -481 -1085 -644 -467 -269 -620 -360 -850 -503 -789 -493 -954
-580 -1240 -650 -198 -49 -272 -51 -443 -10 -156 38 -163 40 -247 102 -70 51
-169 168 -191 227 -6 15 -24 82 -40 150 -46 196 -41 270 41 605 72 293 360
964 765 1782 227 458 292 577 511 943 285 472 439 710 712 1092 392 548 704
949 1011 1295 59 66 186 212 282 325 440 513 886 977 1418 1474 381 356 1120
984 1713 1456 86 68 155 126 154 128 -9 8 -903 -338 -1451 -561 -422 -172
-645 -266 -975 -410 -146 -63 -348 -150 -450 -192 -102 -42 -257 -111 -345
-152 -205 -97 -428 -197 -632 -283 -212 -90 -419 -140 -574 -140 -153 1 -302
39 -385 100 -34 25 -70 59 -82 75 -11 17 -33 47 -47 67 -33 45 -84 245 -84
328 0 30 12 108 28 172 27 113 45 150 114 239 34 43 139 105 265 155 201 81
412 186 505 251 45 32 142 90 217 129 897 469 1120 577 1642 793 144 60 394
165 553 234 288 124 413 173 720 282 88 31 315 114 505 185 462 172 722 256
1410 456 446 130 816 219 1031 248 57 8 173 14 257 15 143 1 164 -1 298 -34z"/>
</g>
</svg>
